# xmcd CD database file
#
# Track frame offsets:
#	150
#	13665
#	26082
#	40387
#	53712
#	67252
#	77662
#	90867
#	104597
#	117660
#	130770
#	143660
#	154935
#	165247
#	176437
#	187667
#	198502
#	209447
#	222090
#	234770
#	250412
#	260402
#	273320
#	284915
#
# Disc length: 3976 seconds
#
# Revision: 12
# Processed by: cddbd v1.5.2PL0 Copyright (c) Steve Scherf et al.
# Submitted via: CDex 1.51
#
DISCID=580f8618
DTITLE=Howlin' Wolf - Moanin' In The Moonlight - Howlin' Wolf
DYEAR=1900
DGENRE=Blues
TTITLE0=Moanin' At Midnight
TTITLE1=How Many More Years
TTITLE2=Smokestack Lightnin'
TTITLE3=Baby, How Long
TTITLE4=No Place To Go
TTITLE5=All Night Boogie
TTITLE6=Evil
TTITLE7=I'm Leavin' You
TTITLE8=Moanin' For My Baby
TTITLE9=I Asked For Water (She Gave Me Gasoline)
TTITLE10=Forty-Four
TTITLE11=Somebody In My Home
TTITLE12=Shake For Me
TTITLE13=The Red Rooster
TTITLE14=You'll Be Mine
TTITLE15=Who's Been Takin'
TTITLE16=Wang-Dang-Doodle
TTITLE17=Little Baby
TTITLE18=Spoonful
TTITLE19=Going Down Slow
TTITLE20=Down In The Bottom
TTITLE21=Back Door Man
TTITLE22=Howlin' For My Baby
TTITLE23=Tell Me
EXTD=
EXTT0=
EXTT1=
EXTT2=
EXTT3=
EXTT4=
EXTT5=
EXTT6=
EXTT7=
EXTT8=
EXTT9=
EXTT10=
EXTT11=
EXTT12=
EXTT13=
EXTT14=
EXTT15=
EXTT16=
EXTT17=
EXTT18=
EXTT19=
EXTT20=
EXTT21=
EXTT22=
EXTT23=
PLAYORDER=
